<svg id="california-svg" width="362" height="617" viewBox="0 0 362 617" fill="none" xmlns="http://www.w3.org/2000/svg">
  <path id="del norte" d="M35.4503 0.588379L51.0451 5.49252L63.2944 8.87454L61.9465    11.1248L60.0894    13.5418L57.218 13.8182L53.2008 17.3932L49.9958 32.2021L50.3734   33.5093L50.7509    37.1457L50.5095 37.8388L48.5338 40.1286L47.4406 40.8831L45.1268     40.2075L43.4848    38.0143L44.3585 35.0885L39.7266 33.5839L32.4473 31.452L33.1541     26.7277L33.3122   23.5036L33.3736 17.1782L33.3561 16.6431L33.2551 15.972L33.0356    15.2394L34.0059     5.92679L35.4503 0.588379Z" fill="FFFFFF" stroke="black" stroke-width="0.412839" stroke-linejoin="bevel" />
  <path id="siskiyou" d="M63.2913 8.875L74.8864 12.1166L74.9874 12.1386L78.0124     12.7659L82.3282     14.3318L84.1063 14.8626L85.1556 15.1609L98.8713     19.0342L104.311 20.3809L109.277     21.7232L110.563 22.1399L112.82 22.8329L146.639    32.8957L145.546 35.3872L145.155    36.7514L142.995 44.6998L143.057 44.8753L143.254    44.9937L138.109 64.0927L134.407   77.5988L111.753 71.3085L100.017 67.909L91.4691   65.6148L92.4964 59.8641L87.4914     56.7803L78.6051 60.2764L72.4102    66.6851L72.7878 69.3127L72.2741 70.2251L71.3258     70.9751L70.5136 70.8567L67.19   69.1723L61.4913 63.1627L58.3653 58.4779L56.4247     56.6005L54.4051    54.9775L54.7212 43.9278L53.9309 42.8004L47.4375 40.8835L48.5307     40.129L50.5064    37.8393L50.7479 37.1462L50.3703 33.5098L49.9927 32.2026L53.1977    17.3936L57.215    13.8186L60.0863 13.5423L61.9435 11.1253L63.2913 8.875Z" fill="FFFFFF" stroke="  black" stroke-width="0.412839" stroke-linejoin="bevel" />
  <path id="imperial" d="M262.318 563.596L290.777 569.544L314.125 574.115L320.18    575.159L329.575    577.036L324.829 578.207L322.041 595.367L322.076 595.464L323.064    598.091L325.246   599.618L326.015 599.956L330.133 600.644L330.273 600.802L330.409    600.943L331.814    604.219L331.358 607.939L330.941 609.382V609.404L328.886   612.291L322.318   616.361L317.348 615.988L317.071 615.967L282.088 611.817L281.395    611.734L277.417    611.26L262.634 609.501L256.343 608.768L251.711 608.233L253.849   598.885L258.319    583.151L259.706 576.681L262.318 563.596Z" fill="FFFFFF" stroke="black" stroke-width="   0.412839" stroke-linejoin="bevel" />
  <path id="riverside" d="M345.51 542.738L341.255 548.747L339.93 551.041L338.722    555.371L338.463     557.209L337.12 563.912L335.276 570.316L329.577 577.036L320.181    575.159L314.127    574.115L290.779 569.544L262.32 563.596L252.446 561.359L237.861    558.196L227.811    556.003L209.288 551.559L209.508 550.607L204.577 546.216L197.93    544.694L198.268   543.071L204.322 537.162L202.066 534.035L199.436 533.048L198.066    529.372L195.12     522.683L196.666 519.884L202.461 514.879L209.011 516.362L210.794   516.778L211.189     517.726L217.243 519.98L230.74 522.981L236.654 523.205L248.152    525.222L281.475     532.258L304.705 537.18L307.954 536.114L313.929 536.408L345.51   542.738Z" fill="FFFFFF" stroke="black" stroke-width="0.412839" stroke-linejoin="bevel" />
  <path id="san diego" d="M197.93 544.693L204.578 546.215L209.508 550.606L209.288    551.558L227.812    556.002L237.861 558.195L252.446 561.358L262.32 563.595L259.708   576.68L258.321   583.15L253.851 598.885L251.713 608.232L247.283 607.697L238.261    606.614L229.076     605.548L216.116 604.021L203.669 602.503L203.392   602.482L201.236 593.051L202.106     579.075V578.601H202.128L202.163    575.553L202.185 574.368L201.632 569.526L201.394     567.81L200.486 565.113L200.402    564.88L197.851 558.454L197.101 556.655L196.96    556.375L195.933 554.203L194.409   552.01L193.479 551.006L192.469 550.326L197.93 544.693Z" fill="FFFFFF" stroke="   black" stroke-width="0.412839" stroke-linejoin="bevel" />
  <path id="orange" d="M191.102 517.352L195.119 522.682L198.065 529.371L199.435     533.047L202.065     534.034L204.322 537.161L198.267 543.07L197.929 544.693L192.468    550.325L192.169    549.124L191.379 547.522L190.887 546.807L182.198 535.916L175.213    527.375L173.51    525.274L174.717 523.142L177.25 519.958L182.238 515.672L184.354   515.808L184.89    515.926L191.102 517.352Z" fill="FFFFFF" stroke="black" stroke-width="0.412839" stroke-linejoin="bevel" />
  <path id="los angeles" d="M150.14 573.495L146.619 573.359L144.384 570.609L144.085     570.135L142.996    566.674L142.009 560.489L143.255 560.906L149.744 572.21L150.28    573.359L150.14    573.495ZM147.747 534.986L147.549 534.841L147.51 534.433L147.549   534.354L147.764    534.411L150.184 535.223L152.892 537.399L155.088 539.158L156.752     540.561L158.89   544.987L159.065 545.443L159.184 546.391L158.969 546.904L158.315    547.286L158.275    547.303H157.898L152.199 544.614L151.821 544.277L147.747    534.986ZM207.667    470.021L204.656 483.067L203.255 490.603L202.201    497.007L201.784 499.775L198.742    506.355L196.112 510.746L195.062 512.487L191.774   514.084L190.589 515.532L190.51   515.926L190.725 516.817L191.102 517.352L184.89    515.926L184.354 515.808L182.238     515.672L177.251 519.958L174.717 523.142L173.51    525.274L169.989 525.752L166.288    525.673L164.584 525.002L163.737 524.524L160.431   522.392L159.838 521.901L159.482   519.905L159.816 519.55L160.887 518.756L161.441     518.637L161.717 518.067L162.011     516.642L161.66 514.032L161.441 512.764L161.322    512.053L161.067 510.588L160.611    508.807L159.974 507.092L159.917 506.969L159.838    506.789L159.816 506.754L159.324   505.785L159.223 505.649L158.85 505.114L158.727   504.938L158.591 504.815L157.797     504.065L156.651 503.613L152.12 502.662L148.559     502.188L146.68 502.346L139.673     499.24L140.266 497.657L144.779 495.7L148.419     494.178L153.88 495.525L156.651     491.112L156.949 489.041L152.655 458.77L152.458     457.129L207.667 470.021Z" fill="FFFFFF" stroke="black" stroke-width="0.412839" stroke-linejoin="bevel" />
  <path id="ventura" d="M129.048 446.418L131.66 447.365L136.152 449.458L136.766     450.923L136.981    452.463L148.401 457.722L152.655 458.77L156.949 489.042L156.651     491.112L153.88   495.525L148.419 494.179L144.779 495.701L140.266 497.657L139.673    499.241L133.46     494.556L126.633 482.69L121.962 476.681L120.873 475.299L120.298   475.04L121.606     474.132L121.984 473.799L122.853 471.026L129.048 446.418Z" fill="FFFFFF" stroke="black" stroke-width="0.412839" stroke-linejoin="bevel" />
  <path id="santa barbara" d="M80.0364 486.849L88.3079 487.516L92.0091    490.898L91.8861 492.775L91.851    493.13L91.6534 493.192L84.901 493.981L84.2907   494.016L82.4906 492.183L82.1525   491.591L80.0364 486.849ZM103.148 489.432L104.891     490.661L109.483 492.183L109.641     492.086L109.716 492.042L109.834     491.985L110.014 491.889L110.251 491.749L110.392     491.692L111.639 491.771L113.14    492.88L113.456 493.35L113.439 493.372L113.421    493.411L113.377 493.446L111.854    494.635L111.419 494.99L111.103 495.034L103.328    495.17L101.642 494.771L99.9996   494.122H99.9821L99.3674 493.819L97.98 493.174L96.7375   492.262L96.6366    491.928L95.7277 486.787L96.0439 486.388L96.3205 486.472L98.7571    487.437L103.148    489.432ZM76.2167 428.464L83.2809 429.232L85.7966 430.206L88.1279       432.596L91.1968 432.083L94.1648 430.42L103.306 427.789L104.157 428.797L106.752     431.228L114.765 437.654L124.814 445.558L126.834 446.076H127.686L129.051        446.418L122.856 471.027L121.987 473.799L121.609 474.132L120.301 475.04L116.999        472.018L114.506 470.934L111.972 470.575L111.283 470.588H111.182L108.473     470.456L102.77   468.658L100.812 466.68L97.4664 464.267L96.1229 463.736L92.6413     462.447L89.7304     461.675L86.3454 460.964L82.4687 460.473L77.8587     459.679L71.9229 451.932L72.296    447.44L75.2069 432.517L76.2167 428.464Z" fill="FFFFFF" stroke="black" stroke-width="   0.412839" stroke-linejoin="bevel" />
  <path id="san luis obispo" d="M57.4746 375.019L107.302 388.648L108.171     388.884L105.677 398.53L110.546    405.764L115.828 416.62L117.746 422.275L122.672    423.582L127.958 429.789L130.136    436.395L127.682 446.076H126.83L124.811   445.558L114.761 437.654L106.748 431.228L104.154   428.797L103.302 427.789L94.161     430.42L91.1931 432.083L88.1242 432.596L85.7928    430.206L83.2771 429.232L76.2129     428.464L76.9637 427.095L77.0252 426.999L77.7364   425.42L78.3116 423.898L78.5838    422.963L78.7857 422.02L78.8428 421.761L78.8648    421.656L78.9613   420.397V420.336L78.8252 419.428L78.6277 418.888L78.215 418.458L76.8452       417.055L76.6476 416.875L76.2525 416.603L72.1562 405.452L64.5783 391.49L59.5908      383.778L58.8181 382.971L58.3659 382.419L57.6502 379.91L57.4746 375.019Z" fill="FFFFFF" stroke="black" stroke-width="0.412839" stroke-linejoin="bevel" />
  <path id="kern" d="M137.178 396.298L158.647 401.614L182.966 407.585L202.358     412.111L204.975     412.862L221.733 416.305L219.894 420.99L219.459 422.608L218.866    429.272L209.247    470.413L207.666 470.022L152.457 457.13L152.654 458.771L148.4   457.723L136.98   452.463L136.765 450.924L136.151 449.458L131.659 447.366L129.047     446.419L127.682    446.076L130.136 436.395L127.958 429.789L122.672 423.582L117.746    422.275L115.827   416.621L110.546 405.764L105.677 398.531L108.171 388.885L137.178   396.298Z" fill="FFFFFF" stroke="black" stroke-width="0.412839" stroke-linejoin="    bevel" />
  <path id="san bernardino" d="M221.733 416.304L233.153 419.05L306.188    435.179L310.345 435.162L319.425    448.786L322.555 453.449L323.719 455.173L340.503    480.264L346.694 489.472L345.271   495.762L345.192 496.551L345.232 496.85L347.726   503.333L350.873 508.272L351.032     510.549L353.956 522.849L356.844 526.31L359.36    529.108L361.538 532.911L361.38    535.363L361.279 535.442L355.343 538.864L351.343   540.504L345.508 542.737L313.928   536.407L307.953 536.114L304.704 537.179L281.474    532.258L248.151 525.222L236.652    523.204L230.738 522.98L217.242 519.98L211.188    517.725L210.793 516.778L209.01    516.361L202.46 514.878L196.664 519.883L195.119   522.682L191.101 517.352L190.724   516.817L190.509 515.927L190.588 515.532L191.773    514.084L195.062 512.488L196.111    510.746L198.741 506.355L201.783 499.776L202.2    497.008L203.254 490.603L204.655   483.067L207.667 470.022L209.247 470.412L218.867    429.271L219.459 422.608L219.894    420.989L221.733 416.304Z" fill="FFFFFF" stroke="black" stroke-width="0.412839" stroke-linejoin="bevel" />
  <path id="inyo" d="M193.612 312.032L234.535 321.705L257.295 355.845L258.143     357.108L262.99    364.307L265.822 368.597L280.762 390.937L292.871 409.106L294.434     411.44L300.927    421.165L301.441 421.919L310.345 435.162L306.187 435.18L233.152    419.051L221.733   416.305L204.975 412.861L207.13 408.159L207.881 405.509L207.683    401.772L206.419     383.366L203.113 364.64L202.046 356.2L203.333 350.629L203.706   347.585L203.587    345.444L202.854 338.509L202.279 337.338L198.938 333.724L198.064     333.645L194.644   331.232L194.503 331.096L194.13 330.263L191.913 319.13L192.032     315.695L193.612 312.032Z" fill="FFFFFF" stroke="black" stroke-width="0.412839" stroke-linejoin="bevel" />
  <path id="tulare" d="M202.046 356.2L203.113 364.639L206.419 383.365L207.684     401.771L207.881     405.509L207.13 408.158L204.975 412.861L202.358 412.11L182.965     407.584L158.647     401.613L137.178 396.297L141.871 378.01L144.066 370.631L145.511    370.241L146.657    370.513L148.496 363.223L147.368 357.766L145.41 357.27L151.306    353.691L159.56    350.743L165.219 352.247L173.508 354.401L174.777 349.756L194.227    354.327L202.046 356.2Z" fill="FFFFFF" stroke="black" stroke-width="0.412839" stroke-linejoin="bevel" />
  <path id="kings" d="M145.411 357.271L147.369 357.767L148.497 363.224L146.657     370.514L145.512     370.242L144.067 370.633L141.872 378.011L137.178     396.298L108.171 388.885L107.302     388.648L104.549 380.998L124.139     369.922L127.208 357.807L133.956 359.465L140.326     360.118L145.411 357.271Z" fill="FFFFFF" stroke="black" stroke-width="0.412839" stroke-linejoin="bevel" />
  <path id="madera" d="M176.044 291.473L179.328 292.364L182.103 293.254L182.713     293.987L184.078     296.715L184.596 302.606L170.78 311.103L168.822 312.388L167.992    313.204L167.456    314.253L167.079 316.779L167.039 317.753L166.942 318.126L166.034    320.24L165.379    320.951L164.133 322.061L162.785 322.806L156.353 322.394L154.478    322.692L147.273    327.18L145.333 328.465L144.881 328.838L141.772 332.299L141.021    333.545L139.893   334.65L139.735 334.694L120.716 334.08L118.007 333.567L114.881    331.031L113.177    328.268L112.721 327.197L112.506 326.487L112.347 325.425L111.101   315.713L114.701   313.577L123.288 312.704L129.997 313.599H134.374L150.259    303.909L155.049    305.076L158.987 301.554L159.975 297.961L174.858 288.903L176.044    291.473Z" fill="FFFFFF   " stroke="black" stroke-width="0.412839" stroke-linejoin="bevel" />
  <path  id ="fresno" d="M193.615 312.033L192.034 315.696L191.916 319.131L194.133     330.264L194.506     331.097L194.647 331.233L198.067 333.646L198.94 333.725L202.282    337.339L202.857    338.51L203.59 345.445L203.708 347.586L203.335 350.63L202.049   356.201L194.229    354.328L174.78 349.757L173.511 354.403L165.222 352.249L159.563    350.744L151.309   353.692L145.412 357.271L140.328 360.118L133.958 359.465L127.21    357.807L124.141     369.922L104.551 380.998L95.5854 370.045L92.7975    366.031L92.5999 362.838L93.8073     356.934L96.0595 354.504L100.318    345.643L90.2861 328.092L111.101 315.713L112.348     325.425L112.506    326.487L112.721 327.197L113.178 328.268L114.881 331.031L118.007        333.567L120.716 334.08L139.735 334.694L139.894 334.65L141.022 333.545L141.773        332.299L144.881 328.838L145.333 328.465L147.274 327.18L154.479 322.692L156.353       322.394L162.785 322.806L164.133 322.061L165.38 320.951L166.034 320.24L166.943      318.126L167.04 317.753L167.079 316.779L167.457 314.253L167.992 313.204L168.822       312.388L170.78 311.103L184.597 302.606L193.615 312.033Z" fill="FFFFFF" stroke="   black" stroke-width="0.412839" stroke-linejoin="bevel" />
  <path id="monterey" d="M61.0968 311.007L60.8553 312.157L61.3119 313.898L64.956    319.943L69.0874    327.378L72.828 337.52L78.7858 349.525L81.4947 352.829L89.8277    359.843L91.0307   360.316L91.2722 360.299L91.6059 360.101L93.8055 356.877L92.5981    362.782L92.7957    365.975L95.5836 369.989L104.549 380.942L107.302 388.592L57.4747   374.963L56.0698   372.914L53.7341 368.603L53.8131 366.506L53.8702 365.497L53.9711    363.659L53.7121    362.036L53.6726 361.799L48.4304 350.574L47.2626 348.517L45.0103    345.981L44.3737   345.411H44.3561L43.9171 345.35L43.6405 345.192L43.2058   344.643L42.9292 344.029L41.8184     341.459L41.4233 340.529L41.3838    339.638L42.8326 325.246L45.9981 324.123L46.0947     324.158L46.8104   324.176L47.3592 323.939L48.4524 323.132L49.1241 322.439L49.6158        321.846L50.4676 320.557L51.2798 318.943L53.4575 314.236L53.497 313.582L53.2423      311.525L53.2204 311.385L61.0968 311.007Z" fill="FFFFFF" stroke="black" stroke-width="  0.412839" stroke-linejoin="bevel" />
  <path id="san benito" d="M61.0989 311.063L63.9044 311.462L67.847 309.247L71.8818    310.102L80.6846    312.467L79.7758 313.414L79.4597 313.853L79.3411 314.169L79.6397    314.98L82.0324    320.178L89.8079 327.28L90.2864 328.092L100.319 345.642L96.0599   354.503L93.8076   356.933L91.608 360.157L91.2743 360.355L91.0328 360.372L89.8298     359.898L81.4968     352.884L78.7879 349.581L72.8301 337.575L69.0895     327.434L64.9581 319.998L61.314    313.954L60.8574 312.212L61.0989 311.063Z" fill="    FFFFFF" stroke="black" stroke-width="  0.412839" stroke-linejoin="bevel" />
  <path id="merced" d="M126.334 284.989L128.472 295.881L128.455 296.714L128.415     296.872L128.217     297.07L130.018 307.804L131.181 309.457L134.373    313.598H129.996L123.287 312.703L114.699    313.576L111.099 315.713L90.2842    328.091L89.8056 327.28L82.0302 320.178L79.6374    314.98L79.3389 314.168L79.4574   313.853L79.7735 313.414L80.6823 312.467L80.0721   311.835L79.734 311.089L79.6945     310.769L80.3267 308.554L81.4551 308.041L82.3858     306.58L83.018 303.531L82.781    302.785L97.265 294.24L97.344 292.385L97.0894     291.828L96.7557 291.63L103.188   289.731L126.334 284.989Z" fill="FFFFFF" stroke="black" stroke-width="0.412839" stroke-linejoin="bevel" />
  <path id="santa cruz" d="M45.1649 283.411L45.1473 284.038L45.2439 284.354L46.4337     286.85L48.7475    291.535L49.8758 293.149L52.9052 295.807L54.8019 297.167L58.6216     301.203L63.9032   309.937L64.2018 310.432L63.9032 311.463L61.0978 311.064L53.2213     311.441L52.9052    309.66L52.2115 306.383L51.7154 305.16L51.2808 304.326L50.8856    303.791L49.9944   302.997L49.5773 302.905L47.3601 303.418L45.38 303.317L44.3571   303.177L43.6414    302.997L43.2858 302.804L43.1453 302.721L42.5175 302.365L42.0389     302.085L40.3179   300.133L38.6144 297.685L37.3324 294.632L36.2611 291.417L36.1426     289.065L36.5026    286.828L40.1774 286.214L44.0366 287.28L44.3351 286.512L45.1649     283.411Z" fill="FFFFFF" stroke="black" stroke-width="0.412839" stroke-linejoin="bevel" />
  <path id="san mateo" d="M41.4636 257.35L41.3846 257.372L40.4187 263.144L41.007 264.07L47.8561        271.251L48.3522 271.562L49.5376 271.979L50.3499 271.764L50.3718 271.707L51.184        273.742L45.1648 283.41L44.335 286.511L44.0364 287.279L40.1773 286.213L36.5025       286.827L36.1425 289.064L36.261 291.415L35.9054 290.841L34.698 288.862L33.0735       285.836L32.876 285.279L32.977 282.594L33.7102 267.926L35.0712 261.955L36.7352      256.007L41.4636 257.35Z" fill="FFFFFF" stroke="black" stroke-width="0.412839" stroke-linejoin="bevel" />
  <path id="almaeda" d="M47.7756 248.02L49.7338 248.059L49.9708 248.195L51.3011    250.055L52.1485    252.705L52.3285 254.025L60.0644 261.974L75.7163 261.557L78.9213    261.202L77.1432   267.61L74.7065 276.467L75.0226 277.142L77.4373 280.818L77.3978   280.774L60.9776     276.094L60.442 276.032L59.9854 276.37L59.6473 276.528L58.1063    276.725L57.316    276.625L51.8895 274.769L51.1826 273.743L50.3704 271.707L50.4099   261.781L46.9854   251.854L47.7756 248.02Z" fill="FFFFFF" stroke="black" stroke-width="0.412839" stroke-linejoin="bevel" />
  <path id="santa clara" d="M51.1823 273.742L51.8892 274.768L57.3158 276.624L58.106     276.725L59.6471    276.527L59.9851 276.369L60.4418 276.031L60.9774 276.093L77.3976    280.773L76.7039   281.054L76.5283 284.019L77.7971 298.491L82.7802 302.785L83.0173   303.531L82.3851    306.579L81.4543 308.04L80.326 308.553L79.6938 310.768L79.7333     311.089L80.0713   311.834L80.6816 312.466L71.8788 310.102L67.844 309.246L63.9014    311.461L64.2    310.431L63.9014 309.935L58.6197 301.201L54.8001 297.166L52.9034   295.806L49.874    293.148L48.7457 291.533L46.4319 286.849L45.2421 284.353L45.1455    284.037L45.1631    283.41L51.1823 273.742Z" fill="FFFFFF" stroke="black" stroke-width="0.412839" stroke-linejoin="bevel" />
<path id="stanislaus" d="M109.735 254.38L117.791 270.992L126.357 284.968L126.335    284.99L103.189     289.731L96.757 291.631L97.0906 291.828L97.3453 292.385L97.2663   294.241L82.7822    302.786L77.7991 298.491L76.5303 284.02L76.7059 281.055L77.3996    280.774L77.4391    280.818L89.0957 273.936L91.1548 272.615L92.0416 272.216L97.0511    270.891L98.1575    271.29L100.353 271.725L102.89 272.019L105.323 271.383L106.908   264.882L109.735 254.38Z" fill="FFFFFF" stroke="black" stroke-width="0.412839" stroke-linejoin="bevel" />
  <path id="mariposa" d="M126.357 284.968L126.572 282.752L126.95 282.2L129.54 280.34L142.404        277.651L143.256 278.09L146.979 282.103L147.29 282.678L147.55 282.853L148.818        283.463L152.915 284.573L154.32 284.555L159.759 283.722L160.449 283.349L164.268      280.305L166.845 279.713L171.016 282.713L173.668 285.762L174.858 288.902L159.974       297.961L158.987 301.553L155.048 305.075L150.258 303.909L134.374 313.599L131.182      309.458L130.019 307.804L128.218 297.07L128.416 296.873L128.456 296.715L128.473       295.881L126.335 284.99L126.357 284.968Z" fill="FFFFFF" stroke="black" stroke-width="   0.412839" stroke-linejoin="bevel" />
  <path id="tuolumne" d="M168.346 254.976L168.012 255.253L167.534 256.92L166.822    262.113L168.64     265L169.948 266.109L170.976 266.78L172.837 267.789L174.4   268.934L175.489    269.785L177.232 271.443L178.457 274.115L180.731 284.177L179.19    289.156L176.832    290.959L176.042 291.472L174.857 288.902L173.667 285.761L171.015    282.712L166.844    279.712L164.267 280.304L160.447 283.348L159.758 283.721L154.318   284.555L152.913    284.572L148.817 283.462L147.548 282.853L147.289 282.677L146.978     282.103L143.255    278.089L142.403 277.65L129.539 280.339L126.948 282.199L126.571     282.752L126.356   284.967L117.79 270.992L125.522 265.89L128.788 262.683L134.232     257.073L139.435    252.248L146.064 246.502L147.136 246.001L148.163 245.681L153.603    244.936L158.41    250.533L159.064 250.213L162.449 249.085L164.882 248.787L166.603   249.186L166.8    249.383L166.958 249.778L168.346 254.976Z" fill="FFFFFF" stroke="   black" stroke-width="   0.412839" stroke-linejoin="bevel" />
  <path id="mono" d="M176.065 234.202L184.512 246.835L190.193 255.288L214.372     291.631L234.537     321.705L193.614 312.032L184.596 302.606L184.078     296.715L182.712 293.986L182.102     293.254L179.327 292.363L176.043     291.473L176.833 290.96L179.191 289.157L180.732    284.178L178.458 274.115L177.233     271.444L175.49 269.786L174.401 268.935L172.838    267.79L170.977 266.781L169.949    266.11L168.641 265L166.823 262.114L167.534    256.92L168.013 255.253L168.347    254.977L172.816 251.178L174.875 246.458L173.093   239.891L173.154 239.317L174.186    236.667L176.065 234.202Z" fill="FFFFFF" stroke="black" stroke-width="0.412839" stroke-linejoin="bevel" />
  <path id="alpine" d="M165.637 218.577L176.064 234.202L174.185 236.667L173.154     239.317L173.092     239.891L174.875 246.458L172.815 251.178L168.346     254.977L166.959 249.779L166.801     249.384L166.603 249.186L164.882 248.787L162.45    249.085L159.065 250.213L158.41     250.533L153.603 244.936L152.457 240.128L155.205    229.473L161.045 226.569L162.129     225.78L165.672 222.63L165.892 222.293L166.19   220.718L166.129 219.63L165.637 218.577Z" fill="FFFFFF" stroke="black" stroke-width="0.412839" stroke-linejoin="bevel" />
  <path id="calaveras" d="M153.604 244.935L148.165 245.681L147.137 246.001L146.066     246.501L139.436     252.247L134.234 257.072L128.79 262.683L125.523 265.889L117.792    270.991L109.735    254.379L108.984 245.426L109.279 245.764L109.832 246.102L113.278    246.834L123.745   243.531L131.661 240.048L133.72 238.982L135.639 239.096L152.458   240.127L153.604 244.935Z    " fill="FFFFFF" stroke="black" stroke-width="0.412839" stroke-linejoin="bevel" />
  <path id="amador" d="M155.206 229.473L152.457 240.128L135.637 239.097L133.719     238.983L131.66    240.049L123.744 243.532L113.277 246.835L109.831 246.102L109.277     245.765L108.983   245.427L108.746 241.097L111.811 229.513L115.907 229.986L128.727     234.316L130.689    234.812L133.833 235.171L142.504 235.562L144.958 235.171L155.206    229.473Z" fill="FFFFFF   " stroke="black" stroke-width="0.412839" stroke-linejoin="bevel" />
  <path id="san joaquin" d="M108.985 245.427L109.736 254.38L106.908 264.882L105.323    271.383L102.891    272.019L100.353 271.725L98.1583 271.29L97.0519 270.891L92.0424   272.216L91.1555    272.615L89.0964 273.936L77.4398 280.818L75.0251 277.142L74.709    276.467L77.1457   267.61L78.9238 261.201L82.0322 245.862L83.9508 243.375L88.7232    238.326H89.7286L90.5013     238.65L91.0326 239.874L91.8492 240.646L93.983    241.177L101.82 242.089L102.118    242.05L105.165 241.001L108.748 241.098L108.985   245.427Z" fill="FFFFFF" stroke="black" stroke-width="0.412839" stroke-linejoin="bevel" />
  <path id="contra costa" d="M52.29 239.536L56.1097 241.847L58.3049 242.483L67.6434     244.751L68.2756     244.817L68.8507 244.778L69.2502 244.519L69.6059     244.084L70.5147 246.576L70.9098     247.107L72.0206 247.563L72.5123     247.677L74.2334 247.717L76.1739 247.168L77.2233     246.51L77.4384 246.12L77.5613     245.326L77.7765 244.975L78.0926 244.817H78.5843L81.1    245.269L81.8903     245.681L82.0308 245.861L78.9224 261.201L75.7174 261.556L60.0655   261.973L52.3296     254.024L52.1495 252.704L51.3022 250.055L49.9719 248.195L49.7348    248.059L47.7767    248.019L46.0776 246.773L44.4531 243.076L50.0729 241.847L51.0036   241.409L52.211    240.466L52.3296 240.088L52.29 239.536Z" fill="FFFFFF" stroke="black" stroke-width="0.412839" stroke-linejoin="bevel" />
  <path id="el dorado" d="M163.397 210.098L165.636 218.577L166.128 219.63L166.189    220.718L165.891    222.293L165.671 222.631L162.128 225.78L161.044 226.57L155.204    229.474L144.957   235.172L142.503 235.562L133.832 235.172L130.688 234.812L128.726    234.316L115.906    229.987L111.809 229.513L110.031 216.976L115.431 210.533L116.639   207.905L117.57    207.133L122.237 205.808L128.194 204.839L130.095 204.94L130.394     205.058L131.421   205.664L132.787 207.072L133.279 208.177L133.639 208.778L134.249     209.484L136.861    212.072L137.397 212.392H137.752L139.869 211.993L140.918    211.524L143.254   209.568L152.693 209.923L155.187 210.138L156.096 209.923L156.71    209.66L156.886    208.993L157.422 208.576L163.397 210.098Z" fill="FFFFFF" stroke="  black" stroke-width="  0.412839" stroke-linejoin="bevel" />
  <path id="sacramento" d="M95.8427 211.783L110.033 216.977L111.811 229.514L108.746     241.099L105.164     241.002L102.117 242.051L101.818 242.09L93.9811 241.178L91.8474    240.647L91.0307    239.875L90.4995 238.651L89.7268 238.326H88.7214L83.949   243.375L82.0304 245.862L81.8899    245.683L81.0996 245.27L78.5839    244.818H78.0922L77.7761 244.976L77.5609 245.327L77.438    246.121L77.2229   246.512L76.1735 247.17L74.233 247.718L72.5119 247.678L72.0202    247.564L70.9094     247.108L70.5143 246.577L69.6055 244.086L72.1783 245.169L76.3887    244.753L81.2357    239.765L84.8578 233.69L87.7467 232.44L88.6028 231.926L90.7585    227.478L92.6772    219.666L92.7386 219.078L92.6772 218.819L91.0307 215.911L90.8551    210.336L95.8427   211.783Z" fill="FFFFFF" stroke="black" stroke-width="0.412839" stroke-linejoin="bevel" />
  <path id="solano" d="M47.8135 232.619L56.8007 235.207L56.9939 234.694L56.8973     234.439L56.7392     234.417L56.5021 234.084L56.3441 233.623L56.4626     233.132L58.8554 226.272L64.8527     227.947L65.0503 227.478L65.1118     226.982L65.1688 225.973L65.1293 225.499L64.9317     224.214L63.9615 221.288L63.979    221.012L64.058 220.639L66.0557 216.884L66.2752     216.643L68.2729 216.976L83.253   219.964L83.7096 220.718V220.894L83.2354 222.911L80.5441    232.457L84.8555     233.689L81.2334 239.764L76.3864 244.752L72.1759 245.169L69.6032   244.085L69.2475     244.519L68.848 244.778L68.2729 244.818L67.6406 244.752L58.3022     242.484L56.107     241.848L52.2873 239.536L47.8925 232.952L47.8135 232.619Z" fill="FFFFFF" stroke="black" stroke-width="0.412839" stroke-linejoin="bevel" />
  <path id="san francisco" d="M41.4638 257.35L36.7354 256.008V255.968L36.7924 255.095L37.35    251.871L37.8637    251.577L39.9008 251.178L41.6043 251.297L42.4166 251.498L42.7151    251.937L43.0268   252.902L42.7722 256.28L42.5175 257.096L41.4638 257.35Z" fill="   FFFFFF" stroke="black" stroke-width="0.412839" stroke-linejoin="bevel" />
  <path id="marin" d="M24.7232 217.596L25.2588 217.315L28.8414 217.399L29.197    217.491L38.5574    228.624L43.523 234.16L41.9425 238.274L40.3004 243.472L40.1775    243.911L40.4761   244.38L41.2093 245.288L41.9425 246.503L42.1971 247.131L42.1795   247.306L39.5672     249.855L38.3994 249.719L37.6662 249.342L37.1701    248.868L23.2217 232.874L25.5354     220.557L25.3993 219.509L24.9032   218.066L24.7232 217.596Z" fill="FFFFFF" stroke="black" stroke-width="0.412839" stroke-linejoin="bevel" />
  <path id="napa" d="M59.4154 193.904L63.5511 196.518L65.7244 208.081L66.2381     211.345L66.2995     212.511L66.2776 216.644L66.0581 216.885L64.0604 220.64L63.9814    221.013L63.9638    221.289L64.9341 224.215L65.1317 225.5L65.1712 225.974L65.1141    226.983L65.0527   227.478L64.8551 227.948L58.8578 226.272L56.465 233.133L56.3465   233.624L56.5045     234.084L56.7416 234.418L56.8996 234.44L56.9962 234.694L56.8031     235.207L47.8159    232.619L49.5369 232.935L50.9023 230.72L51.0033 229.417L50.9638     228.092L50.4282    223.522L47.3988 212.81L45.6602 208.042L45.8006 204.326L46.5295     201.892L54.0283   201.795L59.0992 197.505L59.591 196.755L59.4154 193.904Z" fill="   FFFFFF" stroke="black" stroke-width="0.412839" stroke-linejoin="bevel" />
  <path id="sonoma" d="M10.002 185.208L11.7054 185.103L17.5623 185.164L30.3823    186.213L41.2486    189.511L46.5303 201.89L45.8015 204.325L45.661 208.04L47.3996   212.808L50.429   223.52L50.9646 228.091L51.0041 229.416L50.9032 230.719L49.5377    232.934L47.8167     232.618L47.8957 232.951L43.5229 234.158L38.5573   228.622L29.1969 217.489L28.8413     217.397L25.2587 217.313L24.7231    217.594L21.9176 207.624L12.7548 190.108L10.002 185.208Z   " fill="FFFFFF" stroke="   black" stroke-width="0.412839" stroke-linejoin="bevel" />
  <path id="yolo" d="M62.6596 191.275L83.9092 197.223L90.8549 210.334L91.0305     215.91L92.6769    218.818L92.7384 219.077L92.6769 219.665L90.7583 227.477L88.6026     231.925L87.7465   232.438L84.8576 233.688L80.5462 232.456L83.2375     222.911L83.7117    220.893V220.717L83.2551 219.963L68.2749 216.976L66.2773    216.642L66.2992 212.51L66.2378    211.343L65.7241 208.08L63.5508 196.517L59.415   193.902L62.6596 191.275Z" fill="FFFFFF" stroke="black" stroke-width="0.412839" stroke-linejoin="bevel" />
  <path id="placer" d="M102.732 198.157L109.002 197.644L111.1 199.438L111.557     199.657L117.493     201.653L118.915 201.416L121.646 198.709L122.024     198.157L122.358 197.288L122.735     196.889L124.794 195.345L126.853     194.279L129.979 192.722L135.972 189.932L138.211     189.419L139.853     189.349L166.824 196.336L164.708 204.658L163.996 207.605L163.399         210.097L157.424 208.575L156.888 208.992L156.713 209.658L156.098     209.921L155.189     210.136L152.695 209.921L143.256 209.566L140.92 211.523L139.871    211.992L137.755    212.391H137.399L136.863 212.071L134.251 209.483L133.641    208.777L133.281   208.176L132.789 207.07L131.424 205.662L130.396 205.057L130.098   204.938L128.197     204.837L122.239 205.807L117.572 207.132L116.641    207.904L115.434 210.531L110.034     216.975L95.8438 211.781L99.3649   201.416L101.701 202.03L102.732 198.157Z" fill="FFFFFF" stroke="black" stroke-width="0.412839" stroke-linejoin="bevel" />
  <path id="nevada" d="M168.743 189.24L166.825 196.337L139.854 189.35L138.212 189.42L135.973        189.933L129.98 192.723L126.854 194.28L124.795 195.346L122.736 196.89L122.359        197.289L122.025 198.158L121.647 198.711L118.917 201.417L117.494 201.654L111.558       199.658L111.102 199.439L109.003 197.645L111.953 186.849L113.099 185.029L116.958       182.358L120.576 180.458L122.934 180.204L123.965 180.362L125.151 180.932L125.744      180.243L126.731 179.989L133.857 180.559L139.437 179.173L139.578 179.002L140.21       178.462L141.712 177.734L142.388 177.638L145.514 178.642L146.405 179.752L146.721       182.419L147.647 183.507L148.205 183.823L168.743 189.24Z" fill="FFFFFF" stroke="  black" stroke-width="0.412839" stroke-linejoin="bevel" />
  <path id="sierra" d="M129.383 167.417L133.44 164.837L133.997 162.789L135.121    161.995L137.18     161.403L145.215 167.693L153.943 169.864L166.469 173.189L172.782    173.957L168.743     189.24L148.205 183.822L147.647 183.507L146.721 182.419L146.404   179.752L145.513    178.642L142.387 177.637L141.711 177.734L140.21 178.462L139.577    179.002L139.437    179.173L133.857 180.559L126.731 179.989L125.743 180.243L125.15   180.932L129.383 167.417Z  " fill="FFFFFF" stroke="black" stroke-width="0.412839" stroke-linejoin="bevel" />
  <path id="yuba" d="M125.945 168.979L129.383 167.417L125.15 180.932L123.965    180.362L122.933    180.204L120.575 180.458L116.958 182.358L113.099 185.029L111.953    186.849L109.002   197.645L102.733 198.158L100.871 197.579L99.9185 197.605L96.9549    198.017L95.9012    198.846L95.291 199.5L95.2295 193.613L97.192 181.884L97.4467   181.037L98.1974   179.449L98.474 179.291L103.975 179.594L108.348 179.278L110.069     178.405L125.945 168.979Z    " fill="FFFFFF" stroke="black" stroke-width="0.412839" stroke-linejoin="bevel" />
  <path id="sutter" d="M98.4736 179.292L98.197 179.45L97.4463 181.038L97.1916     181.885L95.2291     193.615L95.2906 199.501L95.9008 198.848L96.9545     198.019L99.9181 197.606L100.871     197.58L102.732 198.159L101.701 202.032L99.3649    201.418L95.8438 211.784L90.8562    210.336L83.9106 197.225L85.5746 193.926L84.073   187.201L82.7998 184.596L83.2169    181.867L86.6809 175.542L98.4736 179.292Z" fill="    FFFFFF" stroke="black" stroke-width="   0.412839" stroke-linejoin="bevel" />
  <path id="colusa" d="M88.6821 171.374L86.6801 175.541L83.216 181.867L82.7989    184.595L84.0722    187.201L85.5737 193.925L83.9097 197.224L62.6601 191.276L60.5614    188.784L60.3639   188.333L58.8579 182.595L59.016 178.625L54.8231 171.466L53.2997   169.944L50.9025     166.387L50.5469 164.685L51.4162 163.22L53.1592 161.329L88.6821     171.374Z" fill="FFFFFF" stroke="black" stroke-width="0.412839" stroke-linejoin="bevel" />
  <path id="lake" d="M53.1593 161.33L51.4163 163.22L50.5469 164.685L50.9026     166.387L53.2997     169.945L54.8232 171.467L59.0161 178.626L58.858 182.596L60.3639    188.333L60.5615    188.785L62.6601 191.277L59.4156 193.904L59.5912 196.755L59.0995    197.505L54.0286   201.795L46.5297 201.892L41.248 189.513L37.6479 185.429L36.5591   183.683L34.1268     177.301L33.3936 174.059L33.4901 173.581L33.7272    172.774L34.6975 170.498L35.6678     168.677L37.5469 168.102L39.3865 166.05L39.7641    163.681L39.527 155.904L40.0011     154.329L40.3392 153.473L41.5641 150.802L43.3818   150.429L47.0478 151.64L49.1815    151.517L49.9367 149.583L50.1913 148.767L56.4433    150.552L54.9988 156.145L54.5071   157.702L53.1593 161.33Z" fill="FFFFFF" stroke="  black" stroke-width="0.412839" stroke-linejoin="bevel" />
  <path id="butte" d="M88.5246 146.813L87.9671 145.843L88.2261 144.198L89.9867     142.185L99.9397     144.87L101.169 144.953L102.491 144.26L102.829 143.238L103.167     142.558L103.816     141.869L105.639 140.54L113.295 135.798L115.416 136.373L118.125    135.86L118.656     135.544L119.253 134.399L120.575 134.772L121.093 137.456L121.15   138.807L120.935    139.579L120.008 140.505L116.483 150.708L122.713 162.038L125.944     168.978L110.068   178.405L108.347 179.278L103.975 179.593L98.4733 179.291L86.6807     175.54L88.6827     171.373L92.3619 163.578L92.4189 163.354L90.6803 152.05L88.5246     146.813Z" fill="FFFFFF" stroke="black" stroke-width="0.412839" stroke-linejoin="bevel" />
  <path id="glenn" d="M51.4978 136.198L88.5223 146.814L90.678 152.051L92.4166    163.355L92.3595    163.579L88.6803 171.374L53.1574 161.329L54.5052 157.701L54.997   156.144L56.4414    150.551L50.1895 148.766L51.4978 136.198Z" fill="FFFFFF" stroke="black" stroke-width="   0.412839" stroke-linejoin="bevel" />
  <path id="plumas" d="M121.171 117.551L128.179 119.49L139.198 122.412L136.371    132.873L136.885    134.282L140.941 137.896L142.504 138.313L143.391 138.111L143.751    136.791L148.045   133.352L149.564 132.895L151.149 133.312L158.433 138.765L168.048    150.034L169.277    151.639L171.393 160.807L171.354 162.531L170.937 164.127L168.821   170.383L166.467   173.19L153.942 169.865L145.213 167.694L137.179 161.403L135.12    161.996L133.996    162.79L133.438 164.838L129.381 167.417L125.944 168.979L122.712   162.039L116.482    150.709L120.008 140.506L120.934 139.58L121.149 138.808L121.092    137.457L120.574   134.773L119.253 134.4L122.993 131.847L123.151 131.689L123.468   131.193L124.772    127.298L124.258 124.644L123.885 124.574L120.934 123.144L120.794     123.008L120.636   122.455L120.653 122.078L120.952 118.301L121.171 117.551Z" fill="    FFFFFF" stroke="black" stroke-width="0.412839" stroke-linejoin="bevel" />
  <path id="tehama" d="M121.173 117.551L120.953 118.301L120.655 122.078L120.637     122.455L120.795     123.008L120.936 123.144L123.886 124.574L124.259     124.644L124.773 127.298L123.469     131.193L123.153 131.689L122.995     131.846L119.254 134.399L118.657 135.544L118.126     135.86L115.417 136.373L113.297    135.799L105.64 140.541L103.818 141.87L103.168    142.558L102.83 143.238L102.492   144.26L101.17 144.953L99.9409 144.87L89.9878   142.186L88.2272 144.199L87.9682     145.844L88.5258 146.813L51.5013 136.198L51.3213    135.917V133.373L52.6077    130.759L54.1312 129.868L54.5878 128.837L54.7239   127.004L54.5263 126.398L54.3902   125.341L55.321 117.612L56.1288 114.761L56.3483     114.564L56.884 112.037L56.9191    111.453L56.704 110.967L54.0302 107.927L57.6742     107.506L63.6101 107.37L68.3561   107.427L78.3136 108.773L81.0006 110.594L85.0968    111.901L86.5457 112.287L92.0074     112.651L96.0817 112.511L99.7433 112.708L106.531   113.673L112.546 114.866L121.173     117.551Z" fill="FFFFFF" stroke="black" stroke-width="   0.412839" stroke-linejoin="bevel" />
  <path id="mendocino" d="M9.86357 111.761L29.6688 117.67L29.2561 119.017L54.523     126.399L54.7205     127.004L54.5844 128.838L54.1278 129.869L52.6044 130.759L51.318    133.374V135.918L51.498     136.199L50.1896 148.766L49.935 149.582L49.1798   151.516L47.0461 151.639L43.3801    150.429L41.5624 150.801L40.3375 153.473L39.9994     154.328L39.5253 155.903L39.7624   163.68L39.3848 166.049L37.5452 168.102L35.6661    168.677L34.6958 170.497L33.7255     172.774L33.4884 173.581L33.3919   174.059L34.1251 177.3L36.5574 183.683L37.6462     185.429L41.2463 189.513L30.38    186.214L17.56 185.165L11.7032 185.104L9.99968     185.209L7.98008 181.595L4.95508   175.059L7.36981 150.157L7.50591 149.187L7.6025    148.748L8.41912 146.718L9.36745    144.638L10.3553 143.2L10.9085 142.384L11.6636   141.598L11.9402 141.221L12.0983   141.002L12.1378 140.958L13.1257 139.436L13.2047    139.041L14.0564 133.352L14.1925     131.944L14.175 123.131L14.1355 122.986L12.2344    117.929L11.1895 115.2L9.86357     111.761Z" fill="FFFFFF" stroke="black" stroke-width="   0.412839" stroke-linejoin="bevel" />
  <path id="humboldt" d="M47.4398 40.8822L53.9332 42.7991L54.7235 43.9265L54.4074     54.9761L53.7137     55.6517L52.9849 56.6386L51.6765 59.2267L51.5975 61.069L51.8126    61.4419L51.5975    64.1923L48.4935 67.3549L47.1237 68.5612L42.5532 72.2372L41.2668    78.7819L29.6717   117.668L9.86649 111.76L8.91377 110.084L0.506106 94.047L0.24707   93.3364L1.31394     83.0938L1.45444 82.835L5.05459 77.6545L7.58786 74.3909L8.55815     73.3031L10.3011    71.4476L12.8915 68.9341L15.9385 65.6925L17.6244 63.9159L18.9064    62.3718L20.5923   59.9417L22.4275 56.7176L23.3232 54.6603L23.1036 53.397L28.4248    40.7638L32.4465     31.4512L39.7258 33.583L44.3577 35.0876L43.484 38.0134L45.126   40.2067L47.4398 40.8822Z" fill="FFFFFF" stroke="black" stroke-width="0.412839" stroke-linejoin="bevel" />
  <path id="trinity" d="M54.4071 54.9773L56.4267 56.6003L58.3673 58.4777L61.4933     63.1626L67.1921     69.1721L70.5156 70.8565L71.3279 70.975L72.2762 70.2249L72.7899    69.3125L72.4123    66.685L78.6072 60.2762L87.4934 56.7802L92.4985 59.8639L91.4711   65.6146L92.3053    66.2068L92.9946 66.9569L93.1131 67.4921L92.4985 69.7292L92.2043     70.2249L91.8092    70.7951L87.0368 75.0281L85.4738 75.5984L85.1972 75.6379L73.8392    89.4379L66.5555    98.6145L59.7898 101.738L54.6442 105.909L54.0296 107.927L56.7033    110.967L56.9185    111.454L56.8833 112.037L56.3477 114.564L56.1282 114.761L55.3204   117.613L54.3896    125.342L54.5257 126.399L29.2588 119.016L29.6715 117.67L41.2666    78.783L42.553   72.2383L47.1234 68.5624L48.4932 67.3561L51.5973 64.1934L51.8124   61.443L51.5973     61.0702L51.6763 59.2278L52.9847 56.6398L53.7135 55.6528L54.4071     54.9773Z" fill="FFFFFF   " stroke="black" stroke-width="0.412839" stroke-linejoin="bevel" />
  <path id="shasta" d="M134.409 77.5992L139.098 78.8406L135.182 93.2943L135.103     95.1936L129.821     114.293L128.179 119.491L121.172 117.552L112.545 114.867L106.53    113.674L99.7424    112.709L96.0808 112.512L92.0065 112.652L86.5448 112.288L85.096   111.902L80.9997    110.595L78.3127 108.774L68.3553 107.428L63.6092 107.371L57.6734     107.507L54.0293    107.928L54.644 105.91L59.7895 101.738L66.5552 98.6151L73.8389    89.4385L85.1969    75.6385L85.4735 75.599L87.0365 75.0287L91.8089 70.7957L92.2041   70.2255L92.4982   69.7298L93.1129 67.4927L92.9943 66.9575L92.305 66.2074L91.4709     65.6152L100.019     67.9094L111.755 71.309L134.409 77.5992Z" fill="FFFFFF" stroke="black" stroke-width="   0.412839" stroke-linejoin="bevel" />
  <path id="lassen" d="M193.675 93.2612L189.162 110.816L184.078 131.042L181.527     140.903L180.715     144.088L180.693 144.145L177.922 154.668L173.65 170.679L172.781    173.903L166.468    173.136L168.821 170.328L170.937 164.073L171.354 162.476L171.394    160.752L169.277   151.585L168.048 149.979L158.433 138.71L151.149 133.258L149.564   132.841L148.045     133.297L143.752 136.736L143.392 138.056L142.505    138.258L140.942 137.842L136.885     134.227L136.371 132.819L139.199   122.357L128.179 119.436L129.821 114.238L135.102     95.1386L135.181    93.2393L139.098 78.7856L193.675 93.2612Z" fill="FFFFFF" stroke="black" stroke-width="0.412839" stroke-linejoin="bevel" />
  <path id="modoc" d="M146.642 32.8965L169.556 39.3008L177.076 41.3186L177.133     41.3406L191.973     45.2753L193.576 45.6876L205.254 48.6354L193.677     93.3166L139.099 78.841L134.41     77.5996L138.111 64.0935L143.257 44.9945L143.059     44.8761L142.998 44.7006L145.158     36.7522L145.549 35.388L146.642 32.8965Z" fill="   FFFFFF" stroke="black" stroke-width="   0.412839" stroke-linejoin="bevel" />
</svg>