<div class="our-mission-svg">
  <svg width="58" height="34" viewBox="0 0 58 34" fill="none" xmlns="http://www.w3.org/2000/svg">
    <path d="M44.9494 14.9189C41.9623 14.9189 39.5469 17.346 39.5469 20.3215C39.5469 21.0333 40.1303 21.6167 40.8421 21.6167C41.5539 21.6167 42.1373 21.0333 42.1373 20.3215C42.1373 18.7696 43.4092 17.4977 44.9611 17.4977C45.6729 17.4977 46.2563 16.9143 46.2563 16.2025C46.2446 15.4907 45.6612 14.9189 44.9494 14.9189Z" fill="#456206" />
    <path d="M53.7592 11.1974C53.4442 10.8941 53.1058 10.6023 52.7557 10.3223L47.9716 6.26164C46.128 4.95476 43.9343 4.12629 41.5539 3.96293L41.8106 4.21964L38.9051 1.3025H38.8818C38.0767 0.567378 36.9915 0.112305 35.813 0.112305C33.7826 0.112305 32.0674 1.43085 31.4839 3.26282C30.9005 2.88942 30.2237 2.66772 29.4886 2.62105C29.3719 2.60938 29.2436 2.60938 29.1269 2.60938C28.2984 2.60938 27.5283 2.85442 26.8748 3.26282C26.2797 1.44252 24.5645 0.123973 22.5458 0.123973C21.3673 0.123973 20.2938 0.567379 19.477 1.31417H19.4536L16.5482 4.23131L16.8049 3.9746C14.4245 4.13796 12.2191 4.9781 10.3872 6.27331L5.60305 10.334C5.25299 10.6023 4.9146 10.8941 4.59955 11.2091C2.20749 13.5195 0.725586 16.7517 0.725586 20.3339C0.725586 27.3351 6.41985 33.0293 13.421 33.0293C19.8854 33.0293 25.2412 28.1635 26.0114 21.8975C26.9449 22.4343 28.03 22.7377 29.1735 22.7377C30.3287 22.7377 31.4022 22.4343 32.3357 21.8975C33.1175 28.1519 38.4617 33.0177 44.9261 33.0177C51.9272 33.0177 57.6215 27.3234 57.6215 20.3223C57.6332 16.74 56.1513 13.5078 53.7592 11.1974ZM13.421 28.992C8.63687 28.992 4.76291 25.118 4.76291 20.3339C4.76291 15.5498 8.63687 11.6759 13.421 11.6759C18.2051 11.6759 22.0791 15.5498 22.0791 20.3339C22.0907 25.1064 18.2051 28.992 13.421 28.992ZM29.1852 19.1437C27.6333 19.1437 26.3731 17.8835 26.3731 16.3316C26.3731 14.7797 27.6333 13.5195 29.1852 13.5195C30.7371 13.5195 31.9973 14.7797 31.9973 16.3316C31.9973 17.8835 30.7371 19.1437 29.1852 19.1437ZM44.9495 28.992C40.1653 28.992 36.2914 25.118 36.2914 20.3339C36.2914 15.5498 40.1653 11.6759 44.9495 11.6759C49.7336 11.6759 53.6075 15.5498 53.6075 20.3339C53.6075 25.1064 49.7336 28.992 44.9495 28.992Z" fill="#456206" />
    <path d="M13.4211 14.9189C10.4339 14.9189 8.01855 17.346 8.01855 20.3215C8.01855 21.0333 8.60198 21.6167 9.31377 21.6167C10.0255 21.6167 10.609 21.0333 10.609 20.3215C10.609 18.7696 11.8808 17.4977 13.4328 17.4977C14.1446 17.4977 14.728 16.9143 14.728 16.2025C14.7163 15.4907 14.1329 14.9189 13.4211 14.9189Z" fill="#456206" />
  </svg>