<svg width="46" height="47" viewBox="0 0 46 47" fill="none" xmlns="http://www.w3.org/2000/svg">
  <g clip-path="url(#clip0_604_163)">
    <path d="M28.3935 24.4718C28.3935 28.1896 25.3689 31.2143 21.651 31.2143C17.9332 31.2143 14.9085 28.1896 14.9085 24.4718C14.9085 20.7539 17.9332 17.7291 21.651 17.7291C23.0236 17.7291 24.301 18.1424 25.3673 18.8496L29.2775 14.9394C29.1893 14.8749 29.1006 14.8106 29.0104 14.7476C26.3587 12.8945 23.7023 11.958 21.104 11.958C20.866 11.958 20.6286 11.9658 20.3916 11.9815C17.2564 12.1949 14.3356 13.5906 12.1692 15.9114C9.9974 18.2342 8.80176 21.274 8.80176 24.4718C8.80176 27.9028 10.1386 31.1292 12.566 33.5566C14.9936 35.9842 18.22 37.321 21.6509 37.321C25.0819 37.321 28.3084 35.9841 30.7359 33.5566C33.1632 31.1291 34.5 27.9028 34.5 24.4718C34.5 21.6477 33.3596 18.9364 31.3005 16.7279L27.2729 20.7554C27.9803 21.8218 28.3935 23.0993 28.3935 24.4718Z" fill="#456206"/>
    <path d="M20.6987 23.5192L23.3969 20.821C22.8682 20.5672 22.2763 20.4248 21.6517 20.4248C19.4201 20.4248 17.6045 22.2405 17.6045 24.4722C17.6045 26.7038 19.4201 28.5194 21.6517 28.5194C23.8833 28.5194 25.6989 26.7038 25.6989 24.4722C25.6989 23.8476 25.5565 23.2556 25.3028 22.7269L22.6047 25.425L20.6987 23.5192Z" fill="#456206"/>
    <path d="M34.8849 13.1437L33.208 14.8206C35.7725 17.5357 37.1958 20.9196 37.1958 24.4716C37.1958 28.6225 35.5786 32.5257 32.642 35.4623C29.7054 38.3989 25.8021 40.0162 21.6513 40.0162C17.5004 40.0162 13.5971 38.3989 10.6605 35.4623C7.72387 32.5257 6.10668 28.6224 6.10668 24.4716C6.10668 20.5878 7.56044 16.8942 10.2 14.0712C12.8336 11.2497 16.3893 9.55212 20.2112 9.29203C23.6657 9.06373 27.1445 10.1551 30.5545 12.5381C30.7759 12.6928 30.9912 12.8522 31.2026 13.0144L32.9791 11.2379L33.2637 6.18945C29.825 3.99583 25.8286 2.82031 21.6514 2.82031C15.8681 2.82031 10.4309 5.07243 6.34162 9.16175C2.25211 13.2511 0 18.6882 0 24.4715C0 30.2547 2.25211 35.6919 6.34153 39.7812C10.4309 43.8705 15.868 46.1228 21.6513 46.1228C27.4345 46.1228 32.8717 43.8706 36.961 39.7812C41.0503 35.6918 43.3024 30.2547 43.3024 24.4715C43.3024 20.2942 42.1268 16.2979 39.9333 12.8592L34.8849 13.1437Z" fill="#456206"/>
    <path d="M35.7261 10.397L41.2333 10.0866L46.0001 5.31979L40.8034 0.123047L36.0366 4.8898L35.7261 10.397Z" fill="#456206"/>
  </g>
  <defs>
    <clipPath id="clip0_604_163">
      <rect width="46" height="46" fill="white" transform="translate(0 0.123047)"/>
    </clipPath>
  </defs>
</svg>
